<svg xmlns="http://www.w3.org/2000/svg" viewBox="0 0 37 33" shape-rendering="crispEdges"><rect width="37" height="33" fill="#ECEAE3"/><rect x="11" y="2" width="1" height="1" fill="#7A6048"/><rect x="12" y="2" width="1" height="1" fill="#7A6048"/><rect x="13" y="2" width="1" height="1" fill="#7A6048"/><rect x="23" y="2" width="1" height="1" fill="#7A6048"/><rect x="24" y="2" width="1" height="1" fill="#7A6048"/><rect x="25" y="2" width="1" height="1" fill="#7A6048"/><rect x="10" y="3" width="1" height="1" fill="#7A6048"/><rect x="11" y="3" width="1" height="1" fill="#7A6048"/><rect x="12" y="3" width="1" height="1" fill="#F4EEDC"/><rect x="13" y="3" width="1" height="1" fill="#7A6048"/><rect x="14" y="3" width="1" height="1" fill="#7A6048"/><rect x="22" y="3" width="1" height="1" fill="#7A6048"/><rect x="23" y="3" width="1" height="1" fill="#7A6048"/><rect x="24" y="3" width="1" height="1" fill="#F4EEDC"/><rect x="25" y="3" width="1" height="1" fill="#7A6048"/><rect x="26" y="3" width="1" height="1" fill="#7A6048"/><rect x="10" y="4" width="1" height="1" fill="#7A6048"/><rect x="11" y="4" width="1" height="1" fill="#F4EEDC"/><rect x="12" y="4" width="1" height="1" fill="#F4EEDC"/><rect x="13" y="4" width="1" height="1" fill="#F4EEDC"/><rect x="14" y="4" width="1" height="1" fill="#7A6048"/><rect x="22" y="4" width="1" height="1" fill="#7A6048"/><rect x="23" y="4" width="1" height="1" fill="#F4EEDC"/><rect x="24" y="4" width="1" height="1" fill="#F4EEDC"/><rect x="25" y="4" width="1" height="1" fill="#F4EEDC"/><rect x="26" y="4" width="1" height="1" fill="#7A6048"/><rect x="9" y="5" width="1" height="1" fill="#7A6048"/><rect x="10" y="5" width="1" height="1" fill="#7A6048"/><rect x="11" y="5" width="1" height="1" fill="#F4EEDC"/><rect x="12" y="5" width="1" height="1" fill="#F4EEDC"/><rect x="13" y="5" width="1" height="1" fill="#F4EEDC"/><rect x="14" y="5" width="1" height="1" fill="#7A6048"/><rect x="15" y="5" width="1" height="1" fill="#7A6048"/><rect x="21" y="5" width="1" height="1" fill="#7A6048"/><rect x="22" y="5" width="1" height="1" fill="#7A6048"/><rect x="23" y="5" width="1" height="1" fill="#F4EEDC"/><rect x="24" y="5" width="1" height="1" fill="#F4EEDC"/><rect x="25" y="5" width="1" height="1" fill="#F4EEDC"/><rect x="26" y="5" width="1" height="1" fill="#7A6048"/><rect x="27" y="5" width="1" height="1" fill="#7A6048"/><rect x="9" y="6" width="1" height="1" fill="#7A6048"/><rect x="10" y="6" width="1" height="1" fill="#F4EEDC"/><rect x="11" y="6" width="1" height="1" fill="#F4EEDC"/><rect x="12" y="6" width="1" height="1" fill="#F4EEDC"/><rect x="13" y="6" width="1" height="1" fill="#F4EEDC"/><rect x="14" y="6" width="1" height="1" fill="#F4EEDC"/><rect x="15" y="6" width="1" height="1" fill="#7A6048"/><rect x="21" y="6" width="1" height="1" fill="#7A6048"/><rect x="22" y="6" width="1" height="1" fill="#F4EEDC"/><rect x="23" y="6" width="1" height="1" fill="#F4EEDC"/><rect x="24" y="6" width="1" height="1" fill="#F4EEDC"/><rect x="25" y="6" width="1" height="1" fill="#F4EEDC"/><rect x="26" y="6" width="1" height="1" fill="#F4EEDC"/><rect x="27" y="6" width="1" height="1" fill="#7A6048"/><rect x="9" y="7" width="1" height="1" fill="#7A6048"/><rect x="10" y="7" width="1" height="1" fill="#F4EEDC"/><rect x="11" y="7" width="1" height="1" fill="#F4EEDC"/><rect x="12" y="7" width="1" height="1" fill="#F4EEDC"/><rect x="13" y="7" width="1" height="1" fill="#F4EEDC"/><rect x="14" y="7" width="1" height="1" fill="#F4EEDC"/><rect x="15" y="7" width="1" height="1" fill="#7A6048"/><rect x="21" y="7" width="1" height="1" fill="#7A6048"/><rect x="22" y="7" width="1" height="1" fill="#F4EEDC"/><rect x="23" y="7" width="1" height="1" fill="#F4EEDC"/><rect x="24" y="7" width="1" height="1" fill="#F4EEDC"/><rect x="25" y="7" width="1" height="1" fill="#F4EEDC"/><rect x="26" y="7" width="1" height="1" fill="#F4EEDC"/><rect x="27" y="7" width="1" height="1" fill="#7A6048"/><rect x="9" y="8" width="1" height="1" fill="#7A6048"/><rect x="10" y="8" width="1" height="1" fill="#F4EEDC"/><rect x="11" y="8" width="1" height="1" fill="#F4EEDC"/><rect x="12" y="8" width="1" height="1" fill="#F4EEDC"/><rect x="13" y="8" width="1" height="1" fill="#F4EEDC"/><rect x="14" y="8" width="1" height="1" fill="#F4EEDC"/><rect x="15" y="8" width="1" height="1" fill="#7A6048"/><rect x="21" y="8" width="1" height="1" fill="#7A6048"/><rect x="22" y="8" width="1" height="1" fill="#F4EEDC"/><rect x="23" y="8" width="1" height="1" fill="#F4EEDC"/><rect x="24" y="8" width="1" height="1" fill="#F4EEDC"/><rect x="25" y="8" width="1" height="1" fill="#F4EEDC"/><rect x="26" y="8" width="1" height="1" fill="#F4EEDC"/><rect x="27" y="8" width="1" height="1" fill="#7A6048"/><rect x="9" y="9" width="1" height="1" fill="#7A6048"/><rect x="10" y="9" width="1" height="1" fill="#F4EEDC"/><rect x="11" y="9" width="1" height="1" fill="#F4EEDC"/><rect x="12" y="9" width="1" height="1" fill="#F4EEDC"/><rect x="13" y="9" width="1" height="1" fill="#F4EEDC"/><rect x="14" y="9" width="1" height="1" fill="#F4EEDC"/><rect x="15" y="9" width="1" height="1" fill="#7A6048"/><rect x="21" y="9" width="1" height="1" fill="#7A6048"/><rect x="22" y="9" width="1" height="1" fill="#F4EEDC"/><rect x="23" y="9" width="1" height="1" fill="#F4EEDC"/><rect x="24" y="9" width="1" height="1" fill="#F4EEDC"/><rect x="25" y="9" width="1" height="1" fill="#F4EEDC"/><rect x="26" y="9" width="1" height="1" fill="#F4EEDC"/><rect x="27" y="9" width="1" height="1" fill="#7A6048"/><rect x="9" y="10" width="1" height="1" fill="#7A6048"/><rect x="10" y="10" width="1" height="1" fill="#F4EEDC"/><rect x="11" y="10" width="1" height="1" fill="#F4EEDC"/><rect x="12" y="10" width="1" height="1" fill="#F4EEDC"/><rect x="13" y="10" width="1" height="1" fill="#F4EEDC"/><rect x="14" y="10" width="1" height="1" fill="#F4EEDC"/><rect x="15" y="10" width="1" height="1" fill="#7A6048"/><rect x="21" y="10" width="1" height="1" fill="#7A6048"/><rect x="22" y="10" width="1" height="1" fill="#F4EEDC"/><rect x="23" y="10" width="1" height="1" fill="#F4EEDC"/><rect x="24" y="10" width="1" height="1" fill="#F4EEDC"/><rect x="25" y="10" width="1" height="1" fill="#F4EEDC"/><rect x="26" y="10" width="1" height="1" fill="#F4EEDC"/><rect x="27" y="10" width="1" height="1" fill="#7A6048"/><rect x="8" y="11" width="1" height="1" fill="#7A6048"/><rect x="9" y="11" width="1" height="1" fill="#7A6048"/><rect x="10" y="11" width="1" height="1" fill="#F4EEDC"/><rect x="11" y="11" width="1" height="1" fill="#F4EEDC"/><rect x="12" y="11" width="1" height="1" fill="#F4EEDC"/><rect x="13" y="11" width="1" height="1" fill="#F4EEDC"/><rect x="14" y="11" width="1" height="1" fill="#F4EEDC"/><rect x="15" y="11" width="1" height="1" fill="#7A6048"/><rect x="16" y="11" width="1" height="1" fill="#7A6048"/><rect x="20" y="11" width="1" height="1" fill="#7A6048"/><rect x="21" y="11" width="1" height="1" fill="#7A6048"/><rect x="22" y="11" width="1" height="1" fill="#F4EEDC"/><rect x="23" y="11" width="1" height="1" fill="#F4EEDC"/><rect x="24" y="11" width="1" height="1" fill="#F4EEDC"/><rect x="25" y="11" width="1" height="1" fill="#F4EEDC"/><rect x="26" y="11" width="1" height="1" fill="#F4EEDC"/><rect x="27" y="11" width="1" height="1" fill="#7A6048"/><rect x="28" y="11" width="1" height="1" fill="#7A6048"/><rect x="8" y="12" width="1" height="1" fill="#7A6048"/><rect x="9" y="12" width="1" height="1" fill="#F4EEDC"/><rect x="10" y="12" width="1" height="1" fill="#F4EEDC"/><rect x="11" y="12" width="1" height="1" fill="#F4EEDC"/><rect x="12" y="12" width="1" height="1" fill="#F4EEDC"/><rect x="13" y="12" width="1" height="1" fill="#F4EEDC"/><rect x="14" y="12" width="1" height="1" fill="#F4EEDC"/><rect x="15" y="12" width="1" height="1" fill="#F4EEDC"/><rect x="16" y="12" width="1" height="1" fill="#7A6048"/><rect x="20" y="12" width="1" height="1" fill="#7A6048"/><rect x="21" y="12" width="1" height="1" fill="#F4EEDC"/><rect x="22" y="12" width="1" height="1" fill="#F4EEDC"/><rect x="23" y="12" width="1" height="1" fill="#F4EEDC"/><rect x="24" y="12" width="1" height="1" fill="#F4EEDC"/><rect x="25" y="12" width="1" height="1" fill="#F4EEDC"/><rect x="26" y="12" width="1" height="1" fill="#F4EEDC"/><rect x="27" y="12" width="1" height="1" fill="#F4EEDC"/><rect x="28" y="12" width="1" height="1" fill="#7A6048"/><rect x="8" y="13" width="1" height="1" fill="#7A6048"/><rect x="9" y="13" width="1" height="1" fill="#F4EEDC"/><rect x="10" y="13" width="1" height="1" fill="#F4EEDC"/><rect x="11" y="13" width="1" height="1" fill="#F4EEDC"/><rect x="12" y="13" width="1" height="1" fill="#F4EEDC"/><rect x="13" y="13" width="1" height="1" fill="#F4EEDC"/><rect x="14" y="13" width="1" height="1" fill="#F4EEDC"/><rect x="15" y="13" width="1" height="1" fill="#F4EEDC"/><rect x="16" y="13" width="1" height="1" fill="#7A6048"/><rect x="20" y="13" width="1" height="1" fill="#7A6048"/><rect x="21" y="13" width="1" height="1" fill="#F4EEDC"/><rect x="22" y="13" width="1" height="1" fill="#F4EEDC"/><rect x="23" y="13" width="1" height="1" fill="#F4EEDC"/><rect x="24" y="13" width="1" height="1" fill="#F4EEDC"/><rect x="25" y="13" width="1" height="1" fill="#F4EEDC"/><rect x="26" y="13" width="1" height="1" fill="#F4EEDC"/><rect x="27" y="13" width="1" height="1" fill="#F4EEDC"/><rect x="28" y="13" width="1" height="1" fill="#7A6048"/><rect x="8" y="14" width="1" height="1" fill="#7A6048"/><rect x="9" y="14" width="1" height="1" fill="#F4EEDC"/><rect x="10" y="14" width="1" height="1" fill="#F4EEDC"/><rect x="11" y="14" width="1" height="1" fill="#F4EEDC"/><rect x="12" y="14" width="1" height="1" fill="#F4EEDC"/><rect x="13" y="14" width="1" height="1" fill="#F4EEDC"/><rect x="14" y="14" width="1" height="1" fill="#F4EEDC"/><rect x="15" y="14" width="1" height="1" fill="#F4EEDC"/><rect x="16" y="14" width="1" height="1" fill="#7A6048"/><rect x="17" y="14" width="1" height="1" fill="#7A6048"/><rect x="18" y="14" width="1" height="1" fill="#7A6048"/><rect x="19" y="14" width="1" height="1" fill="#7A6048"/><rect x="20" y="14" width="1" height="1" fill="#7A6048"/><rect x="21" y="14" width="1" height="1" fill="#F4EEDC"/><rect x="22" y="14" width="1" height="1" fill="#F4EEDC"/><rect x="23" y="14" width="1" height="1" fill="#F4EEDC"/><rect x="24" y="14" width="1" height="1" fill="#F4EEDC"/><rect x="25" y="14" width="1" height="1" fill="#F4EEDC"/><rect x="26" y="14" width="1" height="1" fill="#F4EEDC"/><rect x="27" y="14" width="1" height="1" fill="#F4EEDC"/><rect x="28" y="14" width="1" height="1" fill="#7A6048"/><rect x="8" y="15" width="1" height="1" fill="#7A6048"/><rect x="9" y="15" width="1" height="1" fill="#F4EEDC"/><rect x="10" y="15" width="1" height="1" fill="#F4EEDC"/><rect x="11" y="15" width="1" height="1" fill="#F4EEDC"/><rect x="12" y="15" width="1" height="1" fill="#F4EEDC"/><rect x="13" y="15" width="1" height="1" fill="#F4EEDC"/><rect x="14" y="15" width="1" height="1" fill="#F4EEDC"/><rect x="15" y="15" width="1" height="1" fill="#F4EEDC"/><rect x="16" y="15" width="1" height="1" fill="#7A6048"/><rect x="17" y="15" width="1" height="1" fill="#F4EEDC"/><rect x="18" y="15" width="1" height="1" fill="#F4EEDC"/><rect x="19" y="15" width="1" height="1" fill="#F4EEDC"/><rect x="20" y="15" width="1" height="1" fill="#7A6048"/><rect x="21" y="15" width="1" height="1" fill="#F4EEDC"/><rect x="22" y="15" width="1" height="1" fill="#F4EEDC"/><rect x="23" y="15" width="1" height="1" fill="#F4EEDC"/><rect x="24" y="15" width="1" height="1" fill="#F4EEDC"/><rect x="25" y="15" width="1" height="1" fill="#F4EEDC"/><rect x="26" y="15" width="1" height="1" fill="#F4EEDC"/><rect x="27" y="15" width="1" height="1" fill="#F4EEDC"/><rect x="28" y="15" width="1" height="1" fill="#7A6048"/><rect x="8" y="16" width="1" height="1" fill="#7A6048"/><rect x="9" y="16" width="1" height="1" fill="#F4EEDC"/><rect x="10" y="16" width="1" height="1" fill="#F4EEDC"/><rect x="11" y="16" width="1" height="1" fill="#F4EEDC"/><rect x="12" y="16" width="1" height="1" fill="#F4EEDC"/><rect x="13" y="16" width="1" height="1" fill="#F4EEDC"/><rect x="14" y="16" width="1" height="1" fill="#F4EEDC"/><rect x="15" y="16" width="1" height="1" fill="#F4EEDC"/><rect x="16" y="16" width="1" height="1" fill="#F4EEDC"/><rect x="17" y="16" width="1" height="1" fill="#F4EEDC"/><rect x="18" y="16" width="1" height="1" fill="#F4EEDC"/><rect x="19" y="16" width="1" height="1" fill="#F4EEDC"/><rect x="20" y="16" width="1" height="1" fill="#F4EEDC"/><rect x="21" y="16" width="1" height="1" fill="#F4EEDC"/><rect x="22" y="16" width="1" height="1" fill="#F4EEDC"/><rect x="23" y="16" width="1" height="1" fill="#F4EEDC"/><rect x="24" y="16" width="1" height="1" fill="#F4EEDC"/><rect x="25" y="16" width="1" height="1" fill="#F4EEDC"/><rect x="26" y="16" width="1" height="1" fill="#F4EEDC"/><rect x="27" y="16" width="1" height="1" fill="#F4EEDC"/><rect x="28" y="16" width="1" height="1" fill="#7A6048"/><rect x="8" y="17" width="1" height="1" fill="#7A6048"/><rect x="9" y="17" width="1" height="1" fill="#7A6048"/><rect x="10" y="17" width="1" height="1" fill="#F4EEDC"/><rect x="11" y="17" width="1" height="1" fill="#F4EEDC"/><rect x="12" y="17" width="1" height="1" fill="#F4EEDC"/><rect x="13" y="17" width="1" height="1" fill="#F4EEDC"/><rect x="14" y="17" width="1" height="1" fill="#F4EEDC"/><rect x="15" y="17" width="1" height="1" fill="#F4EEDC"/><rect x="16" y="17" width="1" height="1" fill="#F4EEDC"/><rect x="17" y="17" width="1" height="1" fill="#F4EEDC"/><rect x="18" y="17" width="1" height="1" fill="#F4EEDC"/><rect x="19" y="17" width="1" height="1" fill="#F4EEDC"/><rect x="20" y="17" width="1" height="1" fill="#F4EEDC"/><rect x="21" y="17" width="1" height="1" fill="#F4EEDC"/><rect x="22" y="17" width="1" height="1" fill="#F4EEDC"/><rect x="23" y="17" width="1" height="1" fill="#F4EEDC"/><rect x="24" y="17" width="1" height="1" fill="#F4EEDC"/><rect x="25" y="17" width="1" height="1" fill="#F4EEDC"/><rect x="26" y="17" width="1" height="1" fill="#F4EEDC"/><rect x="27" y="17" width="1" height="1" fill="#7A6048"/><rect x="28" y="17" width="1" height="1" fill="#7A6048"/><rect x="9" y="18" width="1" height="1" fill="#7A6048"/><rect x="10" y="18" width="1" height="1" fill="#F4EEDC"/><rect x="11" y="18" width="1" height="1" fill="#F4EEDC"/><rect x="12" y="18" width="1" height="1" fill="#F4EEDC"/><rect x="13" y="18" width="1" height="1" fill="#F4EEDC"/><rect x="14" y="18" width="1" height="1" fill="#F4EEDC"/><rect x="15" y="18" width="1" height="1" fill="#F4EEDC"/><rect x="16" y="18" width="1" height="1" fill="#F4EEDC"/><rect x="17" y="18" width="1" height="1" fill="#F4EEDC"/><rect x="18" y="18" width="1" height="1" fill="#F4EEDC"/><rect x="19" y="18" width="1" height="1" fill="#F4EEDC"/><rect x="20" y="18" width="1" height="1" fill="#F4EEDC"/><rect x="21" y="18" width="1" height="1" fill="#F4EEDC"/><rect x="22" y="18" width="1" height="1" fill="#F4EEDC"/><rect x="23" y="18" width="1" height="1" fill="#F4EEDC"/><rect x="24" y="18" width="1" height="1" fill="#F4EEDC"/><rect x="25" y="18" width="1" height="1" fill="#F4EEDC"/><rect x="26" y="18" width="1" height="1" fill="#F4EEDC"/><rect x="27" y="18" width="1" height="1" fill="#7A6048"/><rect x="9" y="19" width="1" height="1" fill="#7A6048"/><rect x="10" y="19" width="1" height="1" fill="#F4EEDC"/><rect x="11" y="19" width="1" height="1" fill="#F4EEDC"/><rect x="12" y="19" width="1" height="1" fill="#F4EEDC"/><rect x="13" y="19" width="1" height="1" fill="#F4EEDC"/><rect x="14" y="19" width="1" height="1" fill="#F4EEDC"/><rect x="15" y="19" width="1" height="1" fill="#2A2622"/><rect x="16" y="19" width="1" height="1" fill="#2A2622"/><rect x="17" y="19" width="1" height="1" fill="#F4EEDC"/><rect x="18" y="19" width="1" height="1" fill="#F4EEDC"/><rect x="19" y="19" width="1" height="1" fill="#F4EEDC"/><rect x="20" y="19" width="1" height="1" fill="#2A2622"/><rect x="21" y="19" width="1" height="1" fill="#2A2622"/><rect x="22" y="19" width="1" height="1" fill="#F4EEDC"/><rect x="23" y="19" width="1" height="1" fill="#F4EEDC"/><rect x="24" y="19" width="1" height="1" fill="#F4EEDC"/><rect x="25" y="19" width="1" height="1" fill="#F4EEDC"/><rect x="26" y="19" width="1" height="1" fill="#F4EEDC"/><rect x="27" y="19" width="1" height="1" fill="#7A6048"/><rect x="9" y="20" width="1" height="1" fill="#7A6048"/><rect x="10" y="20" width="1" height="1" fill="#F4EEDC"/><rect x="11" y="20" width="1" height="1" fill="#F4EEDC"/><rect x="12" y="20" width="1" height="1" fill="#F4EEDC"/><rect x="13" y="20" width="1" height="1" fill="#F4EEDC"/><rect x="14" y="20" width="1" height="1" fill="#F4EEDC"/><rect x="15" y="20" width="1" height="1" fill="#2A2622"/><rect x="16" y="20" width="1" height="1" fill="#2A2622"/><rect x="17" y="20" width="1" height="1" fill="#F4EEDC"/><rect x="18" y="20" width="1" height="1" fill="#F4EEDC"/><rect x="19" y="20" width="1" height="1" fill="#F4EEDC"/><rect x="20" y="20" width="1" height="1" fill="#2A2622"/><rect x="21" y="20" width="1" height="1" fill="#2A2622"/><rect x="22" y="20" width="1" height="1" fill="#F4EEDC"/><rect x="23" y="20" width="1" height="1" fill="#F4EEDC"/><rect x="24" y="20" width="1" height="1" fill="#F4EEDC"/><rect x="25" y="20" width="1" height="1" fill="#F4EEDC"/><rect x="26" y="20" width="1" height="1" fill="#F4EEDC"/><rect x="27" y="20" width="1" height="1" fill="#7A6048"/><rect x="9" y="21" width="1" height="1" fill="#7A6048"/><rect x="10" y="21" width="1" height="1" fill="#F4EEDC"/><rect x="11" y="21" width="1" height="1" fill="#F4EEDC"/><rect x="12" y="21" width="1" height="1" fill="#F4EEDC"/><rect x="13" y="21" width="1" height="1" fill="#F4EEDC"/><rect x="14" y="21" width="1" height="1" fill="#F4EEDC"/><rect x="15" y="21" width="1" height="1" fill="#F4EEDC"/><rect x="16" y="21" width="1" height="1" fill="#F4EEDC"/><rect x="17" y="21" width="1" height="1" fill="#D9B79D"/><rect x="18" y="21" width="1" height="1" fill="#D9B79D"/><rect x="19" y="21" width="1" height="1" fill="#D9B79D"/><rect x="20" y="21" width="1" height="1" fill="#F4EEDC"/><rect x="21" y="21" width="1" height="1" fill="#F4EEDC"/><rect x="22" y="21" width="1" height="1" fill="#F4EEDC"/><rect x="23" y="21" width="1" height="1" fill="#F4EEDC"/><rect x="24" y="21" width="1" height="1" fill="#F4EEDC"/><rect x="25" y="21" width="1" height="1" fill="#F4EEDC"/><rect x="26" y="21" width="1" height="1" fill="#F4EEDC"/><rect x="27" y="21" width="1" height="1" fill="#7A6048"/><rect x="9" y="22" width="1" height="1" fill="#7A6048"/><rect x="10" y="22" width="1" height="1" fill="#F4EEDC"/><rect x="11" y="22" width="1" height="1" fill="#F4EEDC"/><rect x="12" y="22" width="1" height="1" fill="#F4EEDC"/><rect x="13" y="22" width="1" height="1" fill="#F4EEDC"/><rect x="14" y="22" width="1" height="1" fill="#F4EEDC"/><rect x="15" y="22" width="1" height="1" fill="#D9B79D"/><rect x="16" y="22" width="1" height="1" fill="#D9B79D"/><rect x="17" y="22" width="1" height="1" fill="#2A2622"/><rect x="18" y="22" width="1" height="1" fill="#2A2622"/><rect x="19" y="22" width="1" height="1" fill="#D9B79D"/><rect x="20" y="22" width="1" height="1" fill="#D9B79D"/><rect x="21" y="22" width="1" height="1" fill="#D9B79D"/><rect x="22" y="22" width="1" height="1" fill="#F4EEDC"/><rect x="23" y="22" width="1" height="1" fill="#F4EEDC"/><rect x="24" y="22" width="1" height="1" fill="#F4EEDC"/><rect x="25" y="22" width="1" height="1" fill="#F4EEDC"/><rect x="26" y="22" width="1" height="1" fill="#F4EEDC"/><rect x="27" y="22" width="1" height="1" fill="#7A6048"/><rect x="9" y="23" width="1" height="1" fill="#7A6048"/><rect x="10" y="23" width="1" height="1" fill="#F4EEDC"/><rect x="11" y="23" width="1" height="1" fill="#F4EEDC"/><rect x="12" y="23" width="1" height="1" fill="#F4EEDC"/><rect x="13" y="23" width="1" height="1" fill="#F4EEDC"/><rect x="14" y="23" width="1" height="1" fill="#D9B79D"/><rect x="15" y="23" width="1" height="1" fill="#D9B79D"/><rect x="16" y="23" width="1" height="1" fill="#D9B79D"/><rect x="17" y="23" width="1" height="1" fill="#2A2622"/><rect x="18" y="23" width="1" height="1" fill="#2A2622"/><rect x="19" y="23" width="1" height="1" fill="#D9B79D"/><rect x="20" y="23" width="1" height="1" fill="#D9B79D"/><rect x="21" y="23" width="1" height="1" fill="#D9B79D"/><rect x="22" y="23" width="1" height="1" fill="#D9B79D"/><rect x="23" y="23" width="1" height="1" fill="#F4EEDC"/><rect x="24" y="23" width="1" height="1" fill="#F4EEDC"/><rect x="25" y="23" width="1" height="1" fill="#F4EEDC"/><rect x="26" y="23" width="1" height="1" fill="#F4EEDC"/><rect x="27" y="23" width="1" height="1" fill="#7A6048"/><rect x="9" y="24" width="1" height="1" fill="#7A6048"/><rect x="10" y="24" width="1" height="1" fill="#7A6048"/><rect x="11" y="24" width="1" height="1" fill="#F4EEDC"/><rect x="12" y="24" width="1" height="1" fill="#F4EEDC"/><rect x="13" y="24" width="1" height="1" fill="#F4EEDC"/><rect x="14" y="24" width="1" height="1" fill="#D9B79D"/><rect x="15" y="24" width="1" height="1" fill="#D9B79D"/><rect x="16" y="24" width="1" height="1" fill="#D9B79D"/><rect x="17" y="24" width="1" height="1" fill="#D9B79D"/><rect x="18" y="24" width="1" height="1" fill="#D9B79D"/><rect x="19" y="24" width="1" height="1" fill="#D9B79D"/><rect x="20" y="24" width="1" height="1" fill="#D9B79D"/><rect x="21" y="24" width="1" height="1" fill="#D9B79D"/><rect x="22" y="24" width="1" height="1" fill="#D9B79D"/><rect x="23" y="24" width="1" height="1" fill="#F4EEDC"/><rect x="24" y="24" width="1" height="1" fill="#F4EEDC"/><rect x="25" y="24" width="1" height="1" fill="#F4EEDC"/><rect x="26" y="24" width="1" height="1" fill="#7A6048"/><rect x="27" y="24" width="1" height="1" fill="#7A6048"/><rect x="10" y="25" width="1" height="1" fill="#7A6048"/><rect x="11" y="25" width="1" height="1" fill="#F4EEDC"/><rect x="12" y="25" width="1" height="1" fill="#F4EEDC"/><rect x="13" y="25" width="1" height="1" fill="#D9B79D"/><rect x="14" y="25" width="1" height="1" fill="#D9B79D"/><rect x="15" y="25" width="1" height="1" fill="#D9B79D"/><rect x="16" y="25" width="1" height="1" fill="#2A2622"/><rect x="17" y="25" width="1" height="1" fill="#D9B79D"/><rect x="18" y="25" width="1" height="1" fill="#D9B79D"/><rect x="19" y="25" width="1" height="1" fill="#D9B79D"/><rect x="20" y="25" width="1" height="1" fill="#2A2622"/><rect x="21" y="25" width="1" height="1" fill="#D9B79D"/><rect x="22" y="25" width="1" height="1" fill="#D9B79D"/><rect x="23" y="25" width="1" height="1" fill="#D9B79D"/><rect x="24" y="25" width="1" height="1" fill="#F4EEDC"/><rect x="25" y="25" width="1" height="1" fill="#F4EEDC"/><rect x="26" y="25" width="1" height="1" fill="#7A6048"/><rect x="10" y="26" width="1" height="1" fill="#7A6048"/><rect x="11" y="26" width="1" height="1" fill="#7A6048"/><rect x="12" y="26" width="1" height="1" fill="#F4EEDC"/><rect x="13" y="26" width="1" height="1" fill="#F4EEDC"/><rect x="14" y="26" width="1" height="1" fill="#D9B79D"/><rect x="15" y="26" width="1" height="1" fill="#D9B79D"/><rect x="16" y="26" width="1" height="1" fill="#D9B79D"/><rect x="17" y="26" width="1" height="1" fill="#2A2622"/><rect x="18" y="26" width="1" height="1" fill="#2A2622"/><rect x="19" y="26" width="1" height="1" fill="#2A2622"/><rect x="20" y="26" width="1" height="1" fill="#D9B79D"/><rect x="21" y="26" width="1" height="1" fill="#D9B79D"/><rect x="22" y="26" width="1" height="1" fill="#D9B79D"/><rect x="23" y="26" width="1" height="1" fill="#F4EEDC"/><rect x="24" y="26" width="1" height="1" fill="#F4EEDC"/><rect x="25" y="26" width="1" height="1" fill="#7A6048"/><rect x="26" y="26" width="1" height="1" fill="#7A6048"/><rect x="11" y="27" width="1" height="1" fill="#7A6048"/><rect x="12" y="27" width="1" height="1" fill="#7A6048"/><rect x="13" y="27" width="1" height="1" fill="#F4EEDC"/><rect x="14" y="27" width="1" height="1" fill="#D9B79D"/><rect x="15" y="27" width="1" height="1" fill="#D9B79D"/><rect x="16" y="27" width="1" height="1" fill="#D9B79D"/><rect x="17" y="27" width="1" height="1" fill="#D9B79D"/><rect x="18" y="27" width="1" height="1" fill="#D9B79D"/><rect x="19" y="27" width="1" height="1" fill="#D9B79D"/><rect x="20" y="27" width="1" height="1" fill="#D9B79D"/><rect x="21" y="27" width="1" height="1" fill="#D9B79D"/><rect x="22" y="27" width="1" height="1" fill="#D9B79D"/><rect x="23" y="27" width="1" height="1" fill="#F4EEDC"/><rect x="24" y="27" width="1" height="1" fill="#7A6048"/><rect x="25" y="27" width="1" height="1" fill="#7A6048"/><rect x="11" y="28" width="1" height="1" fill="#7A6048"/><rect x="12" y="28" width="1" height="1" fill="#C96F7D"/><rect x="13" y="28" width="1" height="1" fill="#C96F7D"/><rect x="14" y="28" width="1" height="1" fill="#D9B79D"/><rect x="15" y="28" width="1" height="1" fill="#D9B79D"/><rect x="16" y="28" width="1" height="1" fill="#D9B79D"/><rect x="17" y="28" width="1" height="1" fill="#D9B79D"/><rect x="18" y="28" width="1" height="1" fill="#D9B79D"/><rect x="19" y="28" width="1" height="1" fill="#D9B79D"/><rect x="20" y="28" width="1" height="1" fill="#D9B79D"/><rect x="21" y="28" width="1" height="1" fill="#D9B79D"/><rect x="22" y="28" width="1" height="1" fill="#D9B79D"/><rect x="23" y="28" width="1" height="1" fill="#C96F7D"/><rect x="24" y="28" width="1" height="1" fill="#C96F7D"/><rect x="25" y="28" width="1" height="1" fill="#7A6048"/><rect x="10" y="29" width="1" height="1" fill="#7A6048"/><rect x="11" y="29" width="1" height="1" fill="#7A6048"/><rect x="12" y="29" width="1" height="1" fill="#C96F7D"/><rect x="13" y="29" width="1" height="1" fill="#C96F7D"/><rect x="14" y="29" width="1" height="1" fill="#C96F7D"/><rect x="15" y="29" width="1" height="1" fill="#D9B79D"/><rect x="16" y="29" width="1" height="1" fill="#D9B79D"/><rect x="17" y="29" width="1" height="1" fill="#D9B79D"/><rect x="18" y="29" width="1" height="1" fill="#D9B79D"/><rect x="19" y="29" width="1" height="1" fill="#D9B79D"/><rect x="20" y="29" width="1" height="1" fill="#D9B79D"/><rect x="21" y="29" width="1" height="1" fill="#D9B79D"/><rect x="22" y="29" width="1" height="1" fill="#C96F7D"/><rect x="23" y="29" width="1" height="1" fill="#C96F7D"/><rect x="24" y="29" width="1" height="1" fill="#C96F7D"/><rect x="25" y="29" width="1" height="1" fill="#7A6048"/><rect x="26" y="29" width="1" height="1" fill="#7A6048"/><rect x="2" y="30" width="1" height="1" fill="#7A6048"/><rect x="3" y="30" width="1" height="1" fill="#7A6048"/><rect x="4" y="30" width="1" height="1" fill="#7A6048"/><rect x="5" y="30" width="1" height="1" fill="#7A6048"/><rect x="6" y="30" width="1" height="1" fill="#7A6048"/><rect x="9" y="30" width="1" height="1" fill="#7A6048"/><rect x="10" y="30" width="1" height="1" fill="#7A6048"/><rect x="11" y="30" width="1" height="1" fill="#C96F7D"/><rect x="12" y="30" width="1" height="1" fill="#C96F7D"/><rect x="13" y="30" width="1" height="1" fill="#C96F7D"/><rect x="14" y="30" width="1" height="1" fill="#C96F7D"/><rect x="15" y="30" width="1" height="1" fill="#C96F7D"/><rect x="16" y="30" width="1" height="1" fill="#C96F7D"/><rect x="17" y="30" width="1" height="1" fill="#C96F7D"/><rect x="18" y="30" width="1" height="1" fill="#D9B79D"/><rect x="19" y="30" width="1" height="1" fill="#C96F7D"/><rect x="20" y="30" width="1" height="1" fill="#C96F7D"/><rect x="21" y="30" width="1" height="1" fill="#C96F7D"/><rect x="22" y="30" width="1" height="1" fill="#C96F7D"/><rect x="23" y="30" width="1" height="1" fill="#C96F7D"/><rect x="24" y="30" width="1" height="1" fill="#C96F7D"/><rect x="25" y="30" width="1" height="1" fill="#C96F7D"/><rect x="26" y="30" width="1" height="1" fill="#7A6048"/><rect x="27" y="30" width="1" height="1" fill="#7A6048"/><rect x="30" y="30" width="1" height="1" fill="#7A6048"/><rect x="31" y="30" width="1" height="1" fill="#7A6048"/><rect x="32" y="30" width="1" height="1" fill="#7A6048"/><rect x="33" y="30" width="1" height="1" fill="#7A6048"/><rect x="34" y="30" width="1" height="1" fill="#7A6048"/></svg>
